Khula-wt719.83.ufo
<glyph name="exclam.deva" format="1">
  <advance width="875"/>
  <unicode hex="0021"/>
  <outline>
    <contour>
      <point x="549" y="436" type="line"/>
      <point x="330" y="436" type="line"/>
      <point x="284" y="1316" type="line"/>
      <point x="595" y="1316" type="line"/>
    </contour>
    <contour>
      <point x="280" y="129" type="curve" smooth="yes"/>
      <point x="280" y="229"/>
      <point x="335" y="282"/>
      <point x="439" y="282" type="curve" smooth="yes"/>
      <point x="538" y="282"/>
      <point x="595" y="226"/>
      <point x="595" y="129" type="curve" smooth="yes"/>
      <point x="595" y="34"/>
      <point x="536" y="-24"/>
      <point x="439" y="-24" type="curve" smooth="yes"/>
      <point x="338" y="-24"/>
      <point x="280" y="32"/>
    </contour>
  </outline>
</glyph>
<glyph name="parenleft.deva" format="1">
  <advance width="706"/>
  <unicode hex="0028"/>
  <outline>
    <contour>
      <point x="90" y="595" type="curve" smooth="yes"/>
      <point x="90" y="912"/>
      <point x="185" y="1197"/>
      <point x="361" y="1406" type="curve"/>
      <point x="586" y="1406" type="line"/>
      <point x="417" y="1174"/>
      <point x="329" y="889"/>
      <point x="329" y="597" type="curve" smooth="yes"/>
      <point x="329" y="302"/>
      <point x="420" y="21"/>
      <point x="584" y="-202" type="curve"/>
      <point x="361" y="-202" type="line"/>
      <point x="184" y="2"/>
      <point x="90" y="282"/>
    </contour>
  </outline>
</glyph>
<glyph name="hyphen.deva" format="1">
  <advance width="673"/>
  <unicode hex="002D"/>
  <outline>
    <contour>
      <point x="95" y="472" type="line"/>
      <point x="95" y="697" type="line"/>
      <point x="578" y="697" type="line"/>
      <point x="578" y="472" type="line"/>
    </contour>
  </outline>
</glyph>
<glyph name="semicolon.deva" format="1">
  <advance width="650"/>
  <unicode hex="003B"/>
  <outline>
    <contour>
      <point x="515" y="214" type="line"/>
      <point x="528" y="193" type="line"/>
      <point x="497" y="72"/>
      <point x="444" y="-71"/>
      <point x="370" y="-238" type="curve"/>
      <point x="172" y="-238" type="line"/>
      <point x="211" y="-78"/>
      <point x="241" y="73"/>
      <point x="263" y="214" type="curve"/>
    </contour>
    <contour>
      <point x="220" y="872" type="curve" smooth="yes"/>
      <point x="220" y="973"/>
      <point x="275" y="1025"/>
      <point x="379" y="1025" type="curve" smooth="yes"/>
      <point x="478" y="1025"/>
      <point x="535" y="971"/>
      <point x="535" y="872" type="curve" smooth="yes"/>
      <point x="535" y="775"/>
      <point x="476" y="719"/>
      <point x="379" y="719" type="curve" smooth="yes"/>
      <point x="278" y="719"/>
      <point x="220" y="773"/>
    </contour>
  </outline>
</glyph>
<glyph name="b" format="1">
  <advance width="1166"/>
  <unicode hex="0062"/>
  <outline>
    <contour>
      <point x="704" y="1025" type="curve" smooth="yes"/>
      <point x="823" y="1025"/>
      <point x="916" y="979"/>
      <point x="983" y="886" type="curve" smooth="yes"/>
      <point x="1050" y="793"/>
      <point x="1084" y="666"/>
      <point x="1084" y="505" type="curve" smooth="yes"/>
      <point x="1084" y="339"/>
      <point x="1049" y="210"/>
      <point x="980" y="119" type="curve" smooth="yes"/>
      <point x="911" y="28"/>
      <point x="816" y="-18"/>
      <point x="697" y="-18" type="curve" smooth="yes"/>
      <point x="578" y="-18"/>
      <point x="485" y="25"/>
      <point x="418" y="111" type="curve"/>
      <point x="400" y="111" type="line"/>
      <point x="354" y="0" type="line"/>
      <point x="144" y="0" type="line"/>
      <point x="144" y="1400" type="line"/>
      <point x="418" y="1400" type="line"/>
      <point x="418" y="1075" type="line" smooth="yes"/>
      <point x="418" y="1033"/>
      <point x="415" y="967"/>
      <point x="408" y="876" type="curve"/>
      <point x="418" y="876" type="line"/>
      <point x="483" y="975"/>
      <point x="578" y="1025"/>
    </contour>
    <contour>
      <point x="616" y="805" type="curve" smooth="yes"/>
      <point x="480" y="805"/>
      <point x="421" y="728"/>
      <point x="418" y="536" type="curve" smooth="yes"/>
      <point x="418" y="507" type="line" smooth="yes"/>
      <point x="418" y="291"/>
      <point x="480" y="204"/>
      <point x="619" y="204" type="curve" smooth="yes"/>
      <point x="732" y="204"/>
      <point x="804" y="311"/>
      <point x="804" y="508" type="curve" smooth="yes"/>
      <point x="804" y="707"/>
      <point x="732" y="805"/>
    </contour>
  </outline>
</glyph>
<glyph name="r" format="1">
  <advance width="837"/>
  <unicode hex="0072"/>
  <outline>
    <contour>
      <point x="706" y="1025" type="curve" smooth="yes"/>
      <point x="743" y="1025"/>
      <point x="773" y="1022"/>
      <point x="798" y="1017" type="curve"/>
      <point x="778" y="760" type="line"/>
      <point x="755" y="766"/>
      <point x="728" y="769"/>
      <point x="697" y="769" type="curve" smooth="yes"/>
      <point x="521" y="769"/>
      <point x="418" y="675"/>
      <point x="418" y="512" type="curve" smooth="yes"/>
      <point x="418" y="0" type="line"/>
      <point x="144" y="0" type="line"/>
      <point x="144" y="1006" type="line"/>
      <point x="352" y="1006" type="line"/>
      <point x="392" y="837" type="line"/>
      <point x="406" y="837" type="line"/>
      <point x="469" y="950"/>
      <point x="581" y="1025"/>
    </contour>
  </outline>
</glyph>
<glyph name="divide.deva" format="1">
  <advance width="1052"/>
  <unicode hex="00F7"/>
  <outline>
    <contour>
      <point x="79" y="551" type="line"/>
      <point x="79" y="748" type="line"/>
      <point x="973" y="748" type="line"/>
      <point x="973" y="551" type="line"/>
    </contour>
    <contour>
      <point x="400" y="336" type="curve" smooth="yes"/>
      <point x="400" y="427"/>
      <point x="446" y="472"/>
      <point x="526" y="472" type="curve" smooth="yes"/>
      <point x="605" y="472"/>
      <point x="651" y="423"/>
      <point x="651" y="336" type="curve" smooth="yes"/>
      <point x="651" y="252"/>
      <point x="603" y="199"/>
      <point x="526" y="199" type="curve" smooth="yes"/>
      <point x="447" y="199"/>
      <point x="400" y="247"/>
    </contour>
    <contour>
      <point x="400" y="964" type="curve" smooth="yes"/>
      <point x="400" y="1053"/>
      <point x="446" y="1101"/>
      <point x="526" y="1101" type="curve" smooth="yes"/>
      <point x="606" y="1101"/>
      <point x="651" y="1049"/>
      <point x="651" y="964" type="curve" smooth="yes"/>
      <point x="651" y="880"/>
      <point x="603" y="828"/>
      <point x="526" y="828" type="curve" smooth="yes"/>
      <point x="447" y="828"/>
      <point x="400" y="876"/>
    </contour>
  </outline>
</glyph>
<glyph name="ideva" format="1">
  <advance width="1106"/>
  <unicode hex="0907"/>
  <outline>
    <contour>
      <point x="540" y="138" type="line"/>
      <point x="833" y="-175" type="line"/>
      <point x="656" y="-289" type="line"/>
      <point x="322" y="76" type="line"/>
      <point x="439" y="-5" type="line"/>
      <point x="191" y="-5"/>
      <point x="97" y="95"/>
      <point x="97" y="174" type="curve" smooth="yes"/>
      <point x="97" y="246"/>
      <point x="159" y="312"/>
      <point x="250" y="312" type="curve" smooth="yes"/>
      <point x="332" y="312"/>
      <point x="413" y="273"/>
      <point x="518" y="164" type="curve"/>
    </contour>
    <contour>
      <point x="618" y="1121" type="line"/>
      <point x="904" y="1121" type="line"/>
      <point x="904" y="757" type="line"/>
      <point x="461" y="757" type="line"/>
      <point x="368" y="757"/>
      <point x="334" y="717"/>
      <point x="334" y="667" type="curve" smooth="yes"/>
      <point x="334" y="623"/>
      <point x="365" y="589"/>
      <point x="439" y="557" type="curve"/>
      <point x="337" y="568" type="line"/>
      <point x="431" y="605"/>
      <point x="534" y="629"/>
      <point x="661" y="629" type="curve" smooth="yes"/>
      <point x="861" y="629"/>
      <point x="1005" y="514"/>
      <point x="1005" y="344" type="curve" smooth="yes"/>
      <point x="1005" y="152"/>
      <point x="837" y="5"/>
      <point x="486" y="5" type="curve"/>
      <point x="442" y="206" type="line"/>
      <point x="670" y="206"/>
      <point x="750" y="274"/>
      <point x="750" y="340" type="curve" smooth="yes"/>
      <point x="750" y="393"/>
      <point x="706" y="424"/>
      <point x="624" y="424" type="curve" smooth="yes"/>
      <point x="560" y="424"/>
      <point x="471" y="400"/>
      <point x="396" y="365" type="curve"/>
      <point x="388" y="365" type="line"/>
      <point x="164" y="468"/>
      <point x="83" y="583"/>
      <point x="83" y="710" type="curve" smooth="yes"/>
      <point x="83" y="834"/>
      <point x="177" y="947"/>
      <point x="402" y="947" type="curve" smooth="yes"/>
      <point x="679" y="947" type="line"/>
      <point x="618" y="887" type="line"/>
    </contour>
    <contour>
      <point x="1136" y="1096" type="line"/>
      <point x="-30" y="1096" type="line"/>
      <point x="-30" y="1289" type="line"/>
      <point x="1136" y="1289" type="line"/>
    </contour>
  </outline>
</glyph>
<glyph name="jadeva" format="1">
  <advance width="1646"/>
  <unicode hex="091C"/>
  <outline>
    <contour>
      <point x="-30" y="1096" type="line"/>
      <point x="-30" y="1289" type="line"/>
      <point x="1676" y="1289" type="line"/>
      <point x="1676" y="1096" type="line"/>
    </contour>
    <contour>
      <point x="739" y="667" type="line"/>
      <point x="765" y="741" type="line"/>
      <point x="889" y="670"/>
      <point x="967" y="558"/>
      <point x="967" y="394" type="curve" smooth="yes"/>
      <point x="967" y="220"/>
      <point x="836" y="78"/>
      <point x="624" y="78" type="curve" smooth="yes"/>
      <point x="398" y="78"/>
      <point x="194" y="210"/>
      <point x="28" y="458" type="curve"/>
      <point x="162" y="652" type="line"/>
      <point x="342" y="398"/>
      <point x="462" y="327"/>
      <point x="568" y="327" type="curve" smooth="yes"/>
      <point x="655" y="327"/>
      <point x="711" y="383"/>
      <point x="711" y="463" type="curve" smooth="yes"/>
      <point x="711" y="562"/>
      <point x="626" y="658"/>
      <point x="452" y="702" type="curve"/>
      <point x="452" y="903" type="line"/>
      <point x="1198" y="903" type="line"/>
      <point x="1198" y="667" type="line"/>
    </contour>
    <contour>
      <point x="1154" y="1132" type="line"/>
      <point x="1441" y="1132" type="line"/>
      <point x="1441" y="0" type="line"/>
      <point x="1154" y="0" type="line"/>
    </contour>
    <contour>
      <point x="1154" y="1289" type="move" name="top"/>
    </contour>
  </outline>
</glyph>
<glyph name="jhadeva" format="1">
  <advance width="1720"/>
  <unicode hex="091D"/>
  <outline>
    <contour>
      <point x="1283" y="617" type="curve"/>
      <point x="1304" y="347" type="line"/>
      <point x="1256" y="324"/>
      <point x="1176" y="310"/>
      <point x="1116" y="310" type="curve" smooth="yes"/>
      <point x="1003" y="310"/>
      <point x="920" y="324"/>
      <point x="856" y="339" type="curve"/>
      <point x="850" y="552" type="line"/>
      <point x="913" y="536"/>
      <point x="970" y="529"/>
      <point x="1029" y="529" type="curve" smooth="yes"/>
      <point x="1109" y="529"/>
      <point x="1214" y="554"/>
    </contour>
    <contour>
      <point x="1228" y="1133" type="line"/>
      <point x="1515" y="1133" type="line"/>
      <point x="1515" y="0" type="line"/>
      <point x="1228" y="0" type="line"/>
    </contour>
    <contour>
      <point x="1750" y="1096" type="line"/>
      <point x="1045" y="1096" type="line"/>
      <point x="1045" y="1289" type="line"/>
      <point x="1750" y="1289" type="line"/>
    </contour>
    <component base="ideva"/>
    <contour>
      <point x="1228" y="1289" type="move" name="top"/>
    </contour>
  </outline>
</glyph>
<glyph name="ttadeva" format="1">
  <advance width="1195"/>
  <unicode hex="091F"/>
  <outline>
    <contour>
      <point x="694" y="1134" type="line"/>
      <point x="980" y="1134" type="line"/>
      <point x="980" y="690" type="line"/>
      <point x="652" y="690" type="line"/>
      <point x="456" y="690"/>
      <point x="366" y="597"/>
      <point x="366" y="470" type="curve" smooth="yes"/>
      <point x="366" y="344"/>
      <point x="473" y="252"/>
      <point x="654" y="252" type="curve" smooth="yes"/>
      <point x="764" y="252"/>
      <point x="855" y="271"/>
      <point x="995" y="323" type="curve"/>
      <point x="1050" y="88" type="line"/>
      <point x="921" y="45"/>
      <point x="827" y="29"/>
      <point x="687" y="29" type="curve" smooth="yes"/>
      <point x="316" y="29"/>
      <point x="85" y="243"/>
      <point x="85" y="506" type="curve" smooth="yes"/>
      <point x="85" y="753"/>
      <point x="263" y="902"/>
      <point x="569" y="902" type="curve" smooth="yes"/>
      <point x="733" y="902" type="line"/>
      <point x="694" y="863" type="line"/>
    </contour>
    <contour>
      <point x="1225" y="1096" type="line"/>
      <point x="-30" y="1096" type="line"/>
      <point x="-30" y="1289" type="line"/>
      <point x="1225" y="1289" type="line"/>
    </contour>
    <contour>
      <point x="537" y="42" type="move" name="btm"/>
    </contour>
    <contour>
      <point x="662" y="1289" type="move" name="top"/>
    </contour>
  </outline>
</glyph>
<glyph name="tthadeva" format="1">
  <advance width="1321"/>
  <unicode hex="0920"/>
  <outline>
    <contour>
      <point x="978" y="489" type="curve" smooth="yes"/>
      <point x="978" y="571"/>
      <point x="939" y="631"/>
      <point x="873" y="690" type="curve"/>
      <point x="666" y="690" type="line"/>
      <point x="447" y="690"/>
      <point x="356" y="602"/>
      <point x="356" y="473" type="curve" smooth="yes"/>
      <point x="356" y="343"/>
      <point x="471" y="240"/>
      <point x="654" y="240" type="curve" smooth="yes"/>
      <point x="854" y="240"/>
      <point x="978" y="338"/>
    </contour>
    <contour>
      <point x="1351" y="1096" type="line"/>
      <point x="-30" y="1096" type="line"/>
      <point x="-30" y="1289" type="line"/>
      <point x="1351" y="1289" type="line"/>
    </contour>
    <contour>
      <point x="811" y="1121" type="line"/>
      <point x="1097" y="1121" type="line"/>
      <point x="1097" y="751" type="line"/>
      <point x="1021" y="857" type="line"/>
      <point x="1129" y="777"/>
      <point x="1230" y="631"/>
      <point x="1230" y="449" type="curve" smooth="yes"/>
      <point x="1230" y="218"/>
      <point x="1040" y="29"/>
      <point x="694" y="29" type="curve" smooth="yes"/>
      <point x="308" y="29"/>
      <point x="85" y="257"/>
      <point x="85" y="512" type="curve" smooth="yes"/>
      <point x="85" y="753"/>
      <point x="261" y="902"/>
      <point x="565" y="902" type="curve" smooth="yes"/>
      <point x="867" y="902" type="line"/>
      <point x="811" y="852" type="line"/>
    </contour>
    <contour>
      <point x="537" y="42" type="move" name="btm"/>
    </contour>
    <contour>
      <point x="750" y="1289" type="move" name="top"/>
    </contour>
  </outline>
</glyph>
<glyph name="dhadeva" format="1">
  <advance width="1429"/>
  <unicode hex="0927"/>
  <outline>
    <contour>
      <point x="768" y="673" type="line"/>
      <point x="757" y="673" type="line"/>
      <point x="577" y="663"/>
      <point x="515" y="590"/>
      <point x="515" y="517" type="curve" smooth="yes"/>
      <point x="515" y="449"/>
      <point x="579" y="401"/>
      <point x="662" y="402" type="curve" smooth="yes"/>
      <point x="801" y="405"/>
      <point x="939" y="504"/>
      <point x="999" y="629" type="curve"/>
      <point x="999" y="246" type="line"/>
      <point x="912" y="198"/>
      <point x="811" y="170"/>
      <point x="691" y="170" type="curve" smooth="yes"/>
      <point x="422" y="170"/>
      <point x="255" y="342"/>
      <point x="255" y="549" type="curve" smooth="yes"/>
      <point x="255" y="717"/>
      <point x="375" y="899"/>
      <point x="688" y="899" type="curve" smooth="yes"/>
      <point x="696" y="899" type="line"/>
    </contour>
    <contour>
      <point x="345" y="700" type="line"/>
      <point x="136" y="757"/>
      <point x="15" y="888"/>
      <point x="15" y="1054" type="curve" smooth="yes"/>
      <point x="15" y="1207"/>
      <point x="143" y="1336"/>
      <point x="383" y="1336" type="curve" smooth="yes"/>
      <point x="479" y="1336"/>
      <point x="545" y="1323"/>
      <point x="605" y="1302" type="curve"/>
      <point x="585" y="1125" type="line"/>
      <point x="539" y="1137"/>
      <point x="506" y="1144"/>
      <point x="450" y="1144" type="curve" smooth="yes"/>
      <point x="358" y="1144"/>
      <point x="300" y="1089"/>
      <point x="300" y="1020" type="curve" smooth="yes"/>
      <point x="300" y="937"/>
      <point x="385" y="860"/>
      <point x="552" y="852" type="curve"/>
    </contour>
    <contour>
      <point x="938" y="1132" type="line"/>
      <point x="1224" y="1132" type="line"/>
      <point x="1224" y="0" type="line"/>
      <point x="938" y="0" type="line"/>
    </contour>
    <contour>
      <point x="1459" y="1096" type="line"/>
      <point x="856" y="1096" type="line"/>
      <point x="856" y="1289" type="line"/>
      <point x="1459" y="1289" type="line"/>
    </contour>
    <contour>
      <point x="938" y="1289" type="move" name="top"/>
    </contour>
  </outline>
</glyph>
<glyph name="bhadeva" format="1">
  <advance width="1488"/>
  <unicode hex="092D"/>
  <outline>
    <contour>
      <point x="997" y="1132" type="line"/>
      <point x="1283" y="1132" type="line"/>
      <point x="1283" y="0" type="line"/>
      <point x="997" y="0" type="line"/>
    </contour>
    <contour>
      <point x="1518" y="1096" type="line"/>
      <point x="901" y="1096" type="line"/>
      <point x="901" y="1289" type="line"/>
      <point x="1518" y="1289" type="line"/>
    </contour>
    <contour>
      <point x="444" y="682" type="line"/>
      <point x="409" y="652" type="line"/>
      <point x="409" y="1000" type="line"/>
      <point x="409" y="1099"/>
      <point x="356" y="1158"/>
      <point x="284" y="1158" type="curve" smooth="yes"/>
      <point x="227" y="1158"/>
      <point x="191" y="1118"/>
      <point x="191" y="1068" type="curve" smooth="yes"/>
      <point x="191" y="998"/>
      <point x="251" y="941"/>
      <point x="430" y="938" type="curve"/>
      <point x="425" y="762" type="line"/>
      <point x="99" y="767"/>
      <point x="-56" y="912"/>
      <point x="-56" y="1101" type="curve" smooth="yes"/>
      <point x="-56" y="1236"/>
      <point x="39" y="1362"/>
      <point x="257" y="1362" type="curve" smooth="yes"/>
      <point x="500" y="1362"/>
      <point x="676" y="1200"/>
      <point x="676" y="964" type="curve" smooth="yes"/>
      <point x="676" y="643" type="line"/>
      <point x="643" y="682" type="line"/>
      <point x="1032" y="682" type="line"/>
      <point x="1032" y="447" type="line"/>
      <point x="631" y="447" type="line"/>
      <point x="676" y="489" type="line"/>
      <point x="676" y="358" type="line"/>
      <point x="676" y="284"/>
      <point x="648" y="239"/>
      <point x="576" y="239" type="curve" smooth="yes"/>
      <point x="508" y="239"/>
      <point x="412" y="284"/>
      <point x="343" y="354" type="curve" smooth="yes"/>
      <point x="277" y="419"/>
      <point x="227" y="508"/>
      <point x="227" y="581" type="curve" smooth="yes"/>
      <point x="227" y="640"/>
      <point x="264" y="682"/>
      <point x="338" y="682" type="curve" smooth="yes"/>
    </contour>
    <contour>
      <point x="997" y="1289" type="move" name="top"/>
    </contour>
  </outline>
</glyph>
<glyph name="lladeva" format="1">
  <advance width="1653"/>
  <unicode hex="0933"/>
  <outline>
    <contour>
      <point x="1683" y="1096" type="line"/>
      <point x="-30" y="1096" type="line"/>
      <point x="-30" y="1289" type="line"/>
      <point x="1683" y="1289" type="line"/>
    </contour>
    <contour>
      <point x="693" y="552" type="curve" smooth="yes"/>
      <point x="785" y="766"/>
      <point x="895" y="914"/>
      <point x="1165" y="914" type="curve" smooth="yes"/>
      <point x="1447" y="914"/>
      <point x="1574" y="690"/>
      <point x="1574" y="483" type="curve" smooth="yes"/>
      <point x="1574" y="257"/>
      <point x="1418" y="78"/>
      <point x="1178" y="78" type="curve" smooth="yes"/>
      <point x="1001" y="78"/>
      <point x="845" y="149"/>
      <point x="691" y="274" type="curve"/>
      <point x="787" y="444" type="line"/>
      <point x="897" y="349"/>
      <point x="1014" y="293"/>
      <point x="1124" y="293" type="curve" smooth="yes"/>
      <point x="1244" y="293"/>
      <point x="1324" y="380"/>
      <point x="1324" y="513" type="curve" smooth="yes"/>
      <point x="1324" y="614"/>
      <point x="1263" y="678"/>
      <point x="1184" y="678" type="curve" smooth="yes"/>
      <point x="1097" y="678"/>
      <point x="1012" y="601"/>
      <point x="958" y="473" type="curve" smooth="yes"/>
      <point x="863" y="250"/>
      <point x="724" y="70"/>
      <point x="488" y="70" type="curve" smooth="yes"/>
      <point x="226" y="70"/>
      <point x="55" y="248"/>
      <point x="55" y="499" type="curve" smooth="yes"/>
      <point x="55" y="724"/>
      <point x="211" y="904"/>
      <point x="456" y="904" type="curve" smooth="yes"/>
      <point x="626" y="904"/>
      <point x="773" y="844"/>
      <point x="919" y="727" type="curve"/>
      <point x="840" y="560" type="line"/>
      <point x="724" y="641"/>
      <point x="607" y="684"/>
      <point x="507" y="684" type="curve" smooth="yes"/>
      <point x="395" y="684"/>
      <point x="311" y="595"/>
      <point x="311" y="466" type="curve" smooth="yes"/>
      <point x="311" y="356"/>
      <point x="376" y="295"/>
      <point x="449" y="295" type="curve" smooth="yes"/>
      <point x="537" y="295"/>
      <point x="618" y="380"/>
    </contour>
    <contour>
      <point x="1448" y="791" type="line"/>
      <point x="1162" y="796" type="line"/>
      <point x="1162" y="1118" type="line"/>
      <point x="1448" y="1118" type="line"/>
    </contour>
    <contour>
      <point x="1029" y="9" type="move" name="btm"/>
    </contour>
    <contour>
      <point x="1094" y="1289" type="move" name="top"/>
    </contour>
  </outline>
</glyph>
<glyph name="vadeva" format="1">
  <advance width="1255"/>
  <unicode hex="0935"/>
  <outline>
    <contour>
      <point x="1285" y="1096" type="line"/>
      <point x="-30" y="1096" type="line"/>
      <point x="-30" y="1289" type="line"/>
      <point x="1285" y="1289" type="line"/>
    </contour>
    <contour>
      <point x="800" y="562" type="curve"/>
      <point x="800" y="260" type="line"/>
      <point x="735" y="216"/>
      <point x="650" y="188"/>
      <point x="548" y="188" type="curve" smooth="yes"/>
      <point x="261" y="188"/>
      <point x="76" y="392"/>
      <point x="76" y="623" type="curve" smooth="yes"/>
      <point x="76" y="816"/>
      <point x="231" y="951"/>
      <point x="470" y="951" type="curve" smooth="yes"/>
      <point x="617" y="951"/>
      <point x="742" y="926"/>
      <point x="849" y="881" type="curve"/>
      <point x="849" y="667" type="line"/>
      <point x="729" y="717"/>
      <point x="641" y="738"/>
      <point x="543" y="738" type="curve" smooth="yes"/>
      <point x="406" y="738"/>
      <point x="340" y="665"/>
      <point x="340" y="575" type="curve" smooth="yes"/>
      <point x="340" y="485"/>
      <point x="411" y="410"/>
      <point x="511" y="410" type="curve" smooth="yes"/>
      <point x="618" y="410"/>
      <point x="708" y="458"/>
    </contour>
    <contour>
      <point x="764" y="1132" type="line"/>
      <point x="1050" y="1132" type="line"/>
      <point x="1050" y="0" type="line"/>
      <point x="764" y="0" type="line"/>
    </contour>
    <contour>
      <point x="764" y="1289" type="move" name="top"/>
    </contour>
  </outline>
</glyph>
<glyph name="twodeva" format="1">
  <advance width="1030"/>
  <unicode hex="0968"/>
  <outline>
    <contour>
      <point x="317" y="456" type="line"/>
      <point x="547" y="550" type="line"/>
      <point x="910" y="-43" type="line"/>
      <point x="680" y="-150" type="line"/>
    </contour>
    <contour>
      <point x="324" y="351" type="curve" smooth="yes"/>
      <point x="169" y="351"/>
      <point x="113" y="404"/>
      <point x="113" y="489" type="curve" smooth="yes"/>
      <point x="113" y="603"/>
      <point x="233" y="752"/>
      <point x="354" y="752" type="curve" smooth="yes"/>
      <point x="430" y="752"/>
      <point x="474" y="708"/>
      <point x="535" y="587" type="curve"/>
      <point x="309" y="589" type="line"/>
      <point x="553" y="631"/>
      <point x="672" y="750"/>
      <point x="672" y="883" type="curve" smooth="yes"/>
      <point x="672" y="991"/>
      <point x="583" y="1069"/>
      <point x="452" y="1069" type="curve" smooth="yes"/>
      <point x="347" y="1069"/>
      <point x="248" y="1043"/>
      <point x="157" y="1001" type="curve"/>
      <point x="78" y="1237" type="line"/>
      <point x="179" y="1274"/>
      <point x="297" y="1301"/>
      <point x="460" y="1301" type="curve" smooth="yes"/>
      <point x="781" y="1301"/>
      <point x="952" y="1122"/>
      <point x="952" y="881" type="curve" smooth="yes"/>
      <point x="952" y="571"/>
      <point x="630" y="351"/>
    </contour>
  </outline>
</glyph>
<glyph name="quoteleft.deva" format="1">
  <advance width="860"/>
  <unicode hex="2018"/>
  <outline>
    <contour>
      <point x="204" y="865" type="line"/>
      <point x="191" y="885" type="line"/>
      <point x="204" y="940"/>
      <point x="226" y="1008"/>
      <point x="256" y="1090" type="curve" smooth="yes"/>
      <point x="287" y="1173"/>
      <point x="318" y="1248"/>
      <point x="350" y="1316" type="curve"/>
      <point x="547" y="1316" type="line"/>
      <point x="508" y="1155"/>
      <point x="477" y="1005"/>
      <point x="456" y="865" type="curve"/>
    </contour>
  </outline>
</glyph>
<glyph name="caprehalfdeva" format="1">
  <advance width="917"/>
  <outline>
    <contour>
      <point x="39" y="675" type="line"/>
      <point x="39" y="903" type="line"/>
      <point x="778" y="903" type="line"/>
      <point x="778" y="675" type="line"/>
    </contour>
    <contour>
      <point x="1106" y="641" type="curve"/>
      <point x="1248" y="440" type="line"/>
      <point x="1085" y="273"/>
      <point x="905" y="169"/>
      <point x="687" y="169" type="curve" smooth="yes"/>
      <point x="423" y="169"/>
      <point x="256" y="324"/>
      <point x="256" y="535" type="curve" smooth="yes"/>
      <point x="256" y="716"/>
      <point x="384" y="875"/>
      <point x="682" y="875" type="curve"/>
      <point x="715" y="677" type="line"/>
      <point x="583" y="678"/>
      <point x="513" y="594"/>
      <point x="513" y="513" type="curve" smooth="yes"/>
      <point x="513" y="443"/>
      <point x="569" y="393"/>
      <point x="663" y="393" type="curve" smooth="yes"/>
      <point x="800" y="393"/>
      <point x="955" y="467"/>
    </contour>
    <contour>
      <point x="-30" y="1096" type="line"/>
      <point x="-30" y="1289" type="line"/>
      <point x="947" y="1289" type="line"/>
      <point x="947" y="1096" type="line"/>
    </contour>
  </outline>
</glyph>
<glyph name="damadeva" format="1">
  <advance width="1673"/>
  <outline>
    <contour>
      <point x="1182" y="1133" type="line"/>
      <point x="1469" y="1133" type="line"/>
      <point x="1469" y="-57" type="line"/>
      <point x="1182" y="-57" type="line"/>
    </contour>
    <contour>
      <point x="1233" y="420" type="line"/>
      <point x="1233" y="185" type="line"/>
      <point x="883" y="185" type="line"/>
      <point x="929" y="227" type="line"/>
      <point x="929" y="85" type="line"/>
      <point x="929" y="11"/>
      <point x="899" y="-39"/>
      <point x="834" y="-39" type="curve" smooth="yes"/>
      <point x="787" y="-39"/>
      <point x="732" y="-6"/>
      <point x="681" y="45" type="curve" smooth="yes"/>
      <point x="605" y="121"/>
      <point x="548" y="227"/>
      <point x="548" y="294" type="curve" smooth="yes"/>
      <point x="548" y="377"/>
      <point x="609" y="420"/>
      <point x="688" y="420" type="curve" smooth="yes"/>
    </contour>
    <contour>
      <point x="1703" y="1096" type="line"/>
      <point x="-30" y="1096" type="line"/>
      <point x="-30" y="1289" type="line"/>
      <point x="1703" y="1289" type="line"/>
    </contour>
    <contour>
      <point x="593" y="1121" type="line"/>
      <point x="879" y="1121" type="line"/>
      <point x="879" y="763" type="line"/>
      <point x="482" y="763" type="line"/>
      <point x="390" y="763"/>
      <point x="358" y="729"/>
      <point x="358" y="683" type="curve" smooth="yes"/>
      <point x="358" y="635"/>
      <point x="401" y="610"/>
      <point x="469" y="610" type="curve" smooth="yes"/>
      <point x="574" y="610" type="line"/>
      <point x="821" y="610"/>
      <point x="923" y="495"/>
      <point x="926" y="349" type="curve" smooth="yes"/>
      <point x="928" y="272" type="line"/>
      <point x="663" y="265" type="line"/>
      <point x="663" y="326" type="line"/>
      <point x="663" y="377"/>
      <point x="625" y="407"/>
      <point x="555" y="407" type="curve" smooth="yes"/>
      <point x="480" y="407" type="line"/>
      <point x="231" y="407"/>
      <point x="69" y="544"/>
      <point x="69" y="717" type="curve" smooth="yes"/>
      <point x="69" y="855"/>
      <point x="168" y="962"/>
      <point x="392" y="962" type="curve" smooth="yes"/>
      <point x="653" y="962" type="line"/>
      <point x="593" y="902" type="line"/>
    </contour>
    <contour>
      <point x="1182" y="-57" type="move" name="btm"/>
    </contour>
    <contour>
      <point x="1182" y="1289" type="move" name="top"/>
    </contour>
  </outline>
</glyph>
<glyph name="ddaddadeva" format="1">
  <advance width="1229"/>
  <outline>
    <contour>
      <point x="666" y="218" type="line"/>
      <point x="946" y="218" type="line"/>
      <point x="946" y="-87" type="line"/>
      <point x="502" y="-87" type="line"/>
      <point x="424" y="-87"/>
      <point x="392" y="-118"/>
      <point x="392" y="-158" type="curve" smooth="yes"/>
      <point x="392" y="-196"/>
      <point x="422" y="-222"/>
      <point x="491" y="-246" type="curve"/>
      <point x="393" y="-233" type="line"/>
      <point x="484" y="-194"/>
      <point x="588" y="-168"/>
      <point x="708" y="-168" type="curve" smooth="yes"/>
      <point x="956" y="-168"/>
      <point x="1079" y="-270"/>
      <point x="1079" y="-417" type="curve" smooth="yes"/>
      <point x="1079" y="-566"/>
      <point x="962" y="-674"/>
      <point x="658" y="-674" type="curve" smooth="yes"/>
      <point x="472" y="-674"/>
      <point x="292" y="-633"/>
      <point x="95" y="-537" type="curve"/>
      <point x="142" y="-364" type="line"/>
      <point x="330" y="-467"/>
      <point x="487" y="-500"/>
      <point x="617" y="-500" type="curve" smooth="yes"/>
      <point x="776" y="-500"/>
      <point x="835" y="-460"/>
      <point x="835" y="-416" type="curve" smooth="yes"/>
      <point x="835" y="-373"/>
      <point x="790" y="-341"/>
      <point x="691" y="-341" type="curve" smooth="yes"/>
      <point x="607" y="-341"/>
      <point x="519" y="-366"/>
      <point x="452" y="-398" type="curve"/>
      <point x="441" y="-398" type="line"/>
      <point x="241" y="-319"/>
      <point x="154" y="-228"/>
      <point x="154" y="-115" type="curve" smooth="yes"/>
      <point x="154" y="-16"/>
      <point x="232" y="80"/>
      <point x="447" y="80" type="curve" smooth="yes"/>
      <point x="726" y="80" type="line"/>
      <point x="666" y="20" type="line"/>
    </contour>
    <contour>
      <point x="713" y="1121" type="line"/>
      <point x="999" y="1121" type="line"/>
      <point x="999" y="786" type="line"/>
      <point x="516" y="786" type="line"/>
      <point x="421" y="786"/>
      <point x="386" y="752"/>
      <point x="386" y="709" type="curve" smooth="yes"/>
      <point x="386" y="666"/>
      <point x="418" y="637"/>
      <point x="492" y="614" type="curve"/>
      <point x="390" y="627" type="line"/>
      <point x="483" y="669"/>
      <point x="591" y="695"/>
      <point x="715" y="695" type="curve" smooth="yes"/>
      <point x="967" y="695"/>
      <point x="1109" y="582"/>
      <point x="1109" y="424" type="curve" smooth="yes"/>
      <point x="1109" y="269"/>
      <point x="972" y="138"/>
      <point x="651" y="138" type="curve" smooth="yes"/>
      <point x="468" y="138"/>
      <point x="286" y="182"/>
      <point x="88" y="283" type="curve"/>
      <point x="136" y="480" type="line"/>
      <point x="325" y="372"/>
      <point x="486" y="330"/>
      <point x="622" y="330" type="curve" smooth="yes"/>
      <point x="787" y="330"/>
      <point x="849" y="376"/>
      <point x="849" y="426" type="curve" smooth="yes"/>
      <point x="849" y="473"/>
      <point x="801" y="507"/>
      <point x="699" y="507" type="curve" smooth="yes"/>
      <point x="608" y="507"/>
      <point x="519" y="482"/>
      <point x="449" y="447" type="curve"/>
      <point x="439" y="447" type="line"/>
      <point x="237" y="525"/>
      <point x="138" y="635"/>
      <point x="138" y="752" type="curve" smooth="yes"/>
      <point x="138" y="853"/>
      <point x="223" y="963"/>
      <point x="456" y="963" type="curve" smooth="yes"/>
      <point x="773" y="963" type="line"/>
      <point x="713" y="902" type="line"/>
    </contour>
    <contour>
      <point x="1259" y="1096" type="line"/>
      <point x="-30" y="1096" type="line"/>
      <point x="-30" y="1289" type="line"/>
      <point x="1259" y="1289" type="line"/>
    </contour>
    <contour>
      <point x="487" y="-653" type="move" name="btm"/>
    </contour>
    <contour>
      <point x="690" y="1289" type="move" name="top"/>
    </contour>
  </outline>
</glyph>
<glyph name="dddha2deva" format="1">
  <advance width="1229"/>
  <outline>
    <contour>
      <point x="713" y="1121" type="line"/>
      <point x="999" y="1121" type="line"/>
      <point x="999" y="757" type="line"/>
      <point x="506" y="757" type="line"/>
      <point x="416" y="757"/>
      <point x="383" y="716"/>
      <point x="383" y="667" type="curve" smooth="yes"/>
      <point x="383" y="620"/>
      <point x="415" y="586"/>
      <point x="491" y="556" type="curve"/>
      <point x="391" y="570" type="line"/>
      <point x="480" y="609"/>
      <point x="590" y="633"/>
      <point x="737" y="633" type="curve" smooth="yes"/>
      <point x="961" y="633"/>
      <point x="1117" y="512"/>
      <point x="1117" y="331" type="curve" smooth="yes"/>
      <point x="1117" y="139"/>
      <point x="976" y="-3"/>
      <point x="641" y="-3" type="curve" smooth="yes"/>
      <point x="449" y="-3"/>
      <point x="279" y="40"/>
      <point x="67" y="150" type="curve"/>
      <point x="121" y="361" type="line"/>
      <point x="308" y="251"/>
      <point x="475" y="204"/>
      <point x="619" y="204" type="curve" smooth="yes"/>
      <point x="783" y="204"/>
      <point x="850" y="265"/>
      <point x="850" y="332" type="curve" smooth="yes"/>
      <point x="850" y="391"/>
      <point x="797" y="423"/>
      <point x="696" y="423" type="curve" smooth="yes"/>
      <point x="607" y="423"/>
      <point x="516" y="398"/>
      <point x="448" y="366" type="curve"/>
      <point x="440" y="366" type="line"/>
      <point x="218" y="464"/>
      <point x="132" y="580"/>
      <point x="132" y="710" type="curve" smooth="yes"/>
      <point x="132" y="829"/>
      <point x="218" y="948"/>
      <point x="450" y="948" type="curve" smooth="yes"/>
      <point x="773" y="948" type="line"/>
      <point x="713" y="887" type="line"/>
    </contour>
    <contour>
      <point x="1259" y="1096" type="line"/>
      <point x="-30" y="1096" type="line"/>
      <point x="-30" y="1289" type="line"/>
      <point x="1259" y="1289" type="line"/>
    </contour>
    <component base="nuktadeva" xOffset="961" yOffset="135"/>
    <contour>
      <point x="488" y="10" type="move" name="btm"/>
    </contour>
    <contour>
      <point x="712" y="1289" type="move" name="top"/>
    </contour>
  </outline>
</glyph>
<glyph name="eightdevaNEP" format="1">
  <advance width="1196"/>
  <outline>
    <contour>
      <point x="37" y="1066" type="line"/>
      <point x="37" y="1262" type="line"/>
      <point x="1142" y="1262" type="line"/>
      <point x="1142" y="1066" type="line"/>
    </contour>
    <contour>
      <point x="504" y="234" type="curve" smooth="yes"/>
      <point x="308" y="234"/>
      <point x="136" y="369"/>
      <point x="136" y="635" type="curve" smooth="yes"/>
      <point x="136" y="816"/>
      <point x="199" y="1014"/>
      <point x="315" y="1180" type="curve"/>
      <point x="581" y="1083" type="line"/>
      <point x="457" y="931"/>
      <point x="400" y="778"/>
      <point x="400" y="639" type="curve" smooth="yes"/>
      <point x="400" y="534"/>
      <point x="460" y="470"/>
      <point x="543" y="470" type="curve" smooth="yes"/>
      <point x="649" y="470"/>
      <point x="746" y="496"/>
      <point x="876" y="496" type="curve" smooth="yes"/>
      <point x="1062" y="496"/>
      <point x="1180" y="369"/>
      <point x="1180" y="211" type="curve" smooth="yes"/>
      <point x="1180" y="104"/>
      <point x="1145" y="18"/>
      <point x="1077" y="-84" type="curve"/>
      <point x="821" y="-19" type="line"/>
      <point x="880" y="51"/>
      <point x="921" y="125"/>
      <point x="921" y="186" type="curve" smooth="yes"/>
      <point x="921" y="236"/>
      <point x="888" y="268"/>
      <point x="830" y="268" type="curve" smooth="yes"/>
      <point x="752" y="269"/>
      <point x="632" y="234"/>
    </contour>
  </outline>
</glyph>
<glyph name="fivedevaNEP" format="1">
  <advance width="1062"/>
  <outline>
    <contour>
      <point x="288" y="134" type="line"/>
      <point x="491" y="197" type="line"/>
      <point x="657" y="-129" type="line"/>
      <point x="457" y="-208" type="line"/>
    </contour>
    <contour>
      <point x="354" y="284" type="curve" smooth="yes"/>
      <point x="529" y="287"/>
      <point x="639" y="393"/>
      <point x="665" y="630" type="curve" smooth="yes"/>
      <point x="734" y="1259" type="line"/>
      <point x="993" y="1259" type="line"/>
      <point x="914" y="628" type="line"/>
      <point x="870" y="280"/>
      <point x="684" y="73"/>
      <point x="309" y="73" type="curve" smooth="yes"/>
      <point x="161" y="73"/>
      <point x="89" y="125"/>
      <point x="89" y="195" type="curve" smooth="yes"/>
      <point x="89" y="289"/>
      <point x="197" y="414"/>
      <point x="303" y="414" type="curve" smooth="yes"/>
      <point x="372" y="414"/>
      <point x="411" y="374"/>
      <point x="482" y="228" type="curve"/>
      <point x="221" y="244" type="line"/>
      <point x="239" y="241"/>
      <point x="342" y="284"/>
    </contour>
    <contour>
      <point x="793" y="842" type="curve"/>
      <point x="828" y="596" type="line"/>
      <point x="751" y="555"/>
      <point x="639" y="519"/>
      <point x="526" y="519" type="curve" smooth="yes"/>
      <point x="259" y="519"/>
      <point x="109" y="661"/>
      <point x="109" y="908" type="curve" smooth="yes"/>
      <point x="109" y="1259" type="line"/>
      <point x="360" y="1259" type="line"/>
      <point x="360" y="894" type="line"/>
      <point x="360" y="792"/>
      <point x="417" y="740"/>
      <point x="513" y="740" type="curve" smooth="yes"/>
      <point x="620" y="740"/>
      <point x="708" y="777"/>
    </contour>
  </outline>
</glyph>
<glyph name="hamadeva" format="1">
  <advance width="1859"/>
  <outline>
    <contour>
      <point x="409" y="129" type="curve" smooth="yes"/>
      <point x="409" y="-15"/>
      <point x="488" y="-136"/>
      <point x="736" y="-323" type="curve"/>
      <point x="573" y="-454" type="line"/>
      <point x="299" y="-254"/>
      <point x="167" y="-50"/>
      <point x="167" y="174" type="curve" smooth="yes"/>
      <point x="167" y="390"/>
      <point x="316" y="585"/>
      <point x="630" y="585" type="curve" smooth="yes"/>
      <point x="917" y="585"/>
      <point x="1111" y="416"/>
      <point x="1111" y="149" type="curve" smooth="yes"/>
      <point x="1111" y="97" type="line"/>
      <point x="1044" y="181" type="line"/>
      <point x="1437" y="181" type="line"/>
      <point x="1437" y="-43" type="line"/>
      <point x="1066" y="-43" type="line"/>
      <point x="1112" y="0" type="line"/>
      <point x="1112" y="-121" type="line"/>
      <point x="1112" y="-196"/>
      <point x="1078" y="-240"/>
      <point x="1006" y="-240" type="curve" smooth="yes"/>
      <point x="949" y="-240"/>
      <point x="870" y="-196"/>
      <point x="804" y="-133" type="curve" smooth="yes"/>
      <point x="738" y="-69"/>
      <point x="689" y="9"/>
      <point x="689" y="75" type="curve" smooth="yes"/>
      <point x="689" y="138"/>
      <point x="730" y="181"/>
      <point x="805" y="181" type="curve" smooth="yes"/>
      <point x="891" y="181" type="line"/>
      <point x="865" y="126" type="line"/>
      <point x="865" y="184" type="line"/>
      <point x="865" y="300"/>
      <point x="791" y="374"/>
      <point x="649" y="374" type="curve" smooth="yes"/>
      <point x="507" y="374"/>
      <point x="409" y="283"/>
    </contour>
    <contour>
      <point x="766" y="1114" type="line"/>
      <point x="1052" y="1114" type="line"/>
      <point x="1052" y="745" type="line"/>
      <point x="490" y="745" type="line"/>
      <point x="384" y="745"/>
      <point x="343" y="702"/>
      <point x="343" y="644" type="curve" smooth="yes"/>
      <point x="343" y="584"/>
      <point x="395" y="544"/>
      <point x="491" y="519" type="curve"/>
      <point x="305" y="370" type="line"/>
      <point x="145" y="461"/>
      <point x="67" y="567"/>
      <point x="67" y="699" type="curve" smooth="yes"/>
      <point x="67" y="832"/>
      <point x="170" y="939"/>
      <point x="387" y="939" type="curve" smooth="yes"/>
      <point x="805" y="939" type="line"/>
      <point x="766" y="890" type="line"/>
    </contour>
    <contour>
      <point x="-30" y="1096" type="line"/>
      <point x="-30" y="1289" type="line"/>
      <point x="1889" y="1289" type="line"/>
      <point x="1889" y="1096" type="line"/>
    </contour>
    <contour>
      <point x="1371" y="1127" type="line"/>
      <point x="1658" y="1127" type="line"/>
      <point x="1658" y="-324" type="line"/>
      <point x="1371" y="-324" type="line"/>
    </contour>
    <contour>
      <point x="1371" y="-324" type="move" name="btm"/>
    </contour>
    <contour>
      <point x="1371" y="1289" type="move" name="top"/>
    </contour>
  </outline>
</glyph>
<glyph name="harauudeva" format="1">
  <advance width="1290"/>
  <outline>
    <contour>
      <point x="940" y="411" type="line"/>
      <point x="758" y="44" type="line"/>
      <point x="555" y="114" type="line"/>
      <point x="730" y="483" type="line"/>
    </contour>
    <contour>
      <point x="690" y="592" type="curve" smooth="yes"/>
      <point x="1010" y="592"/>
      <point x="1191" y="439"/>
      <point x="1191" y="253" type="curve" smooth="yes"/>
      <point x="1191" y="173"/>
      <point x="1175" y="117"/>
      <point x="1142" y="46" type="curve"/>
      <point x="917" y="89" type="line"/>
      <point x="943" y="135"/>
      <point x="957" y="186"/>
      <point x="957" y="239" type="curve" smooth="yes"/>
      <point x="957" y="327"/>
      <point x="893" y="398"/>
      <point x="719" y="399" type="curve" smooth="yes"/>
      <point x="529" y="399"/>
      <point x="437" y="284"/>
      <point x="437" y="168" type="curve" smooth="yes"/>
      <point x="437" y="19"/>
      <point x="559" y="-52"/>
      <point x="800" y="-99" type="curve"/>
      <point x="721" y="-291" type="line"/>
      <point x="411" y="-227"/>
      <point x="173" y="-75"/>
      <point x="173" y="199" type="curve" smooth="yes"/>
      <point x="173" y="417"/>
      <point x="354" y="592"/>
    </contour>
    <contour>
      <point x="804" y="1114" type="line"/>
      <point x="1090" y="1114" type="line"/>
      <point x="1090" y="745" type="line"/>
      <point x="494" y="745" type="line"/>
      <point x="389" y="745"/>
      <point x="346" y="702"/>
      <point x="346" y="644" type="curve" smooth="yes"/>
      <point x="346" y="587"/>
      <point x="396" y="545"/>
      <point x="492" y="519" type="curve"/>
      <point x="306" y="371" type="line"/>
      <point x="146" y="462"/>
      <point x="70" y="569"/>
      <point x="70" y="699" type="curve" smooth="yes"/>
      <point x="70" y="832"/>
      <point x="172" y="939"/>
      <point x="390" y="939" type="curve" smooth="yes"/>
      <point x="843" y="939" type="line"/>
      <point x="804" y="890" type="line"/>
    </contour>
    <contour>
      <point x="1320" y="1096" type="line"/>
      <point x="-30" y="1096" type="line"/>
      <point x="-30" y="1289" type="line"/>
      <point x="1320" y="1289" type="line"/>
    </contour>
    <component base="uuvowelsigndeva" xOffset="1018" yOffset="-107"/>
  </outline>
</glyph>
<glyph name="haudeva" format="1">
  <advance width="1217"/>
  <outline>
    <contour>
      <point x="727" y="1114" type="line"/>
      <point x="1013" y="1114" type="line"/>
      <point x="1013" y="745" type="line"/>
      <point x="490" y="745" type="line"/>
      <point x="384" y="745"/>
      <point x="343" y="701"/>
      <point x="343" y="643" type="curve" smooth="yes"/>
      <point x="343" y="585"/>
      <point x="395" y="544"/>
      <point x="491" y="519" type="curve"/>
      <point x="306" y="370" type="line"/>
      <point x="145" y="461"/>
      <point x="67" y="568"/>
      <point x="67" y="697" type="curve" smooth="yes"/>
      <point x="67" y="834"/>
      <point x="170" y="939"/>
      <point x="387" y="939" type="curve" smooth="yes"/>
      <point x="766" y="939" type="line"/>
      <point x="727" y="890" type="line"/>
    </contour>
    <contour>
      <point x="1247" y="1096" type="line"/>
      <point x="-30" y="1096" type="line"/>
      <point x="-30" y="1289" type="line"/>
      <point x="1247" y="1289" type="line"/>
    </contour>
    <contour>
      <point x="442" y="168" type="curve" smooth="yes"/>
      <point x="442" y="26"/>
      <point x="570" y="-62"/>
      <point x="873" y="-112" type="curve"/>
      <point x="799" y="-306" type="line"/>
      <point x="410" y="-241"/>
      <point x="173" y="-79"/>
      <point x="173" y="201" type="curve" smooth="yes"/>
      <point x="173" y="410"/>
      <point x="339" y="585"/>
      <point x="653" y="585" type="curve" smooth="yes"/>
      <point x="947" y="585"/>
      <point x="1117" y="441"/>
      <point x="1117" y="252" type="curve" smooth="yes"/>
      <point x="1117" y="171"/>
      <point x="1097" y="115"/>
      <point x="1062" y="45" type="curve"/>
      <point x="829" y="89" type="line"/>
      <point x="855" y="137"/>
      <point x="868" y="178"/>
      <point x="868" y="231" type="curve" smooth="yes"/>
      <point x="868" y="301"/>
      <point x="807" y="369"/>
      <point x="670" y="369" type="curve" smooth="yes"/>
      <point x="529" y="370"/>
      <point x="442" y="270"/>
    </contour>
    <component base="uvowelsigndeva" xOffset="1161" yOffset="-141"/>
  </outline>
</glyph>
<glyph name="ivowelsign04deva" format="1">
  <advance width="651"/>
  <outline>
    <contour>
      <point x="160" y="1254" type="line"/>
      <point x="160" y="1344" type="line"/>
      <point x="160" y="1579"/>
      <point x="326" y="1799"/>
      <point x="807" y="1799" type="curve" smooth="yes"/>
      <point x="1124" y="1799"/>
      <point x="1521" y="1728"/>
      <point x="1805" y="1629" type="curve"/>
      <point x="1753" y="1428" type="line"/>
      <point x="1452" y="1518"/>
      <point x="1104" y="1569"/>
      <point x="867" y="1569" type="curve" smooth="yes"/>
      <point x="544" y="1569"/>
      <point x="446" y="1445"/>
      <point x="446" y="1321" type="curve" smooth="yes"/>
      <point x="446" y="1254" type="line"/>
    </contour>
    <component base="aavowelsigndeva"/>
  </outline>
</glyph>
<glyph name="ivowelsign09deva" format="1">
  <advance width="651"/>
  <outline>
    <contour>
      <point x="160" y="1254" type="line"/>
      <point x="160" y="1344" type="line"/>
      <point x="160" y="1580"/>
      <point x="323" y="1801"/>
      <point x="875" y="1801" type="curve" smooth="yes"/>
      <point x="1398" y="1801"/>
      <point x="2194" y="1743"/>
      <point x="2819" y="1656" type="curve"/>
      <point x="2785" y="1450" type="line"/>
      <point x="2177" y="1524"/>
      <point x="1392" y="1567"/>
      <point x="954" y="1567" type="curve" smooth="yes"/>
      <point x="535" y="1567"/>
      <point x="446" y="1444"/>
      <point x="446" y="1321" type="curve" smooth="yes"/>
      <point x="446" y="1254" type="line"/>
    </contour>
    <component base="aavowelsigndeva"/>
  </outline>
</glyph>
<glyph name="japrehalfdeva" format="1">
  <advance width="1148"/>
  <outline>
    <contour>
      <point x="735" y="638" type="line"/>
      <point x="762" y="713" type="line"/>
      <point x="888" y="641"/>
      <point x="963" y="530"/>
      <point x="963" y="378" type="curve" smooth="yes"/>
      <point x="963" y="205"/>
      <point x="832" y="63"/>
      <point x="621" y="63" type="curve" smooth="yes"/>
      <point x="401" y="63"/>
      <point x="199" y="192"/>
      <point x="28" y="446" type="curve"/>
      <point x="158" y="636" type="line"/>
      <point x="338" y="381"/>
      <point x="462" y="308"/>
      <point x="567" y="308" type="curve" smooth="yes"/>
      <point x="655" y="308"/>
      <point x="711" y="363"/>
      <point x="711" y="443" type="curve" smooth="yes"/>
      <point x="711" y="537"/>
      <point x="629" y="629"/>
      <point x="449" y="672" type="curve"/>
      <point x="449" y="873" type="line"/>
      <point x="1413" y="873" type="line"/>
      <point x="1375" y="638" type="line"/>
    </contour>
    <contour>
      <point x="-30" y="1096" type="line"/>
      <point x="-30" y="1289" type="line"/>
      <point x="1178" y="1289" type="line"/>
      <point x="1178" y="1096" type="line"/>
    </contour>
  </outline>
</glyph>
<glyph name="jaradeva" format="1">
  <advance width="1691"/>
  <outline>
    <contour>
      <point x="1378" y="407" type="line"/>
      <point x="663" y="-221" type="line"/>
      <point x="499" y="-60" type="line"/>
      <point x="1241" y="588" type="line"/>
    </contour>
    <contour>
      <point x="-30" y="1096" type="line"/>
      <point x="-30" y="1289" type="line"/>
      <point x="1721" y="1289" type="line"/>
      <point x="1721" y="1096" type="line"/>
    </contour>
    <contour>
      <point x="746" y="668" type="line"/>
      <point x="772" y="741" type="line"/>
      <point x="901" y="673"/>
      <point x="969" y="566"/>
      <point x="969" y="425" type="curve" smooth="yes"/>
      <point x="969" y="264"/>
      <point x="832" y="109"/>
      <point x="623" y="109" type="curve" smooth="yes"/>
      <point x="406" y="109"/>
      <point x="217" y="229"/>
      <point x="46" y="484" type="curve"/>
      <point x="175" y="670" type="line"/>
      <point x="348" y="421"/>
      <point x="463" y="353"/>
      <point x="573" y="353" type="curve" smooth="yes"/>
      <point x="660" y="353"/>
      <point x="717" y="407"/>
      <point x="717" y="483" type="curve" smooth="yes"/>
      <point x="717" y="564"/>
      <point x="636" y="658"/>
      <point x="459" y="701" type="curve"/>
      <point x="459" y="902" type="line"/>
      <point x="1244" y="902" type="line"/>
      <point x="1244" y="668" type="line"/>
    </contour>
    <contour>
      <point x="1200" y="1133" type="line"/>
      <point x="1486" y="1133" type="line"/>
      <point x="1486" y="0" type="line"/>
      <point x="1200" y="0" type="line"/>
    </contour>
    <contour>
      <point x="1200" y="1289" type="move" name="top"/>
    </contour>
  </outline>
</glyph>
<glyph name="jasadeva" format="1">
  <advance width="2614"/>
  <outline>
    <contour>
      <point x="735" y="637" type="line"/>
      <point x="762" y="712" type="line"/>
      <point x="888" y="641"/>
      <point x="963" y="529"/>
      <point x="963" y="381" type="curve" smooth="yes"/>
      <point x="963" y="209"/>
      <point x="832" y="66"/>
      <point x="621" y="66" type="curve" smooth="yes"/>
      <point x="401" y="66"/>
      <point x="199" y="196"/>
      <point x="28" y="450" type="curve"/>
      <point x="158" y="639" type="line"/>
      <point x="338" y="385"/>
      <point x="462" y="311"/>
      <point x="567" y="311" type="curve" smooth="yes"/>
      <point x="655" y="311"/>
      <point x="711" y="365"/>
      <point x="711" y="445" type="curve" smooth="yes"/>
      <point x="711" y="535"/>
      <point x="629" y="627"/>
      <point x="449" y="671" type="curve"/>
      <point x="449" y="872" type="line"/>
      <point x="1211" y="872" type="line"/>
      <point x="1175" y="637" type="line"/>
    </contour>
    <contour>
      <point x="-30" y="1096" type="line"/>
      <point x="-30" y="1289" type="line"/>
      <point x="1178" y="1289" type="line"/>
      <point x="1178" y="1096" type="line"/>
    </contour>
    <component base="sadeva" xOffset="1057"/>
  </outline>
</glyph>
<glyph name="jharaprehalfdevaNEP" format="1">
  <advance width="1574"/>
  <outline>
    <contour>
      <point x="1214" y="401" type="curve"/>
      <point x="1202" y="777" type="line"/>
      <point x="1249" y="802"/>
      <point x="1335" y="828"/>
      <point x="1434" y="828" type="curve" smooth="yes"/>
      <point x="1586" y="828"/>
      <point x="1695" y="785"/>
      <point x="1819" y="683" type="curve"/>
      <point x="1766" y="487" type="line"/>
      <point x="1668" y="569"/>
      <point x="1600" y="596"/>
      <point x="1491" y="596" type="curve" smooth="yes"/>
      <point x="1384" y="596"/>
      <point x="1287" y="529"/>
    </contour>
    <contour>
      <point x="1205" y="1096" type="line"/>
      <point x="1205" y="1289" type="line"/>
      <point x="1604" y="1289" type="line"/>
      <point x="1604" y="1096" type="line"/>
    </contour>
    <component base="bharadeva"/>
  </outline>
</glyph>
<glyph name="labhadeva" format="1">
  <advance width="2497"/>
  <outline>
    <contour>
      <point x="-30" y="1096" type="line"/>
      <point x="-30" y="1289" type="line"/>
      <point x="1160" y="1289" type="line"/>
      <point x="1160" y="1096" type="line"/>
    </contour>
    <contour>
      <point x="968" y="623" type="curve"/>
      <point x="792" y="483" type="line"/>
      <point x="712" y="595"/>
      <point x="630" y="647"/>
      <point x="538" y="647" type="curve" smooth="yes"/>
      <point x="413" y="647"/>
      <point x="344" y="565"/>
      <point x="344" y="461" type="curve" smooth="yes"/>
      <point x="344" y="348"/>
      <point x="414" y="243"/>
      <point x="543" y="112" type="curve"/>
      <point x="348" y="-2" type="line"/>
      <point x="202" y="141"/>
      <point x="84" y="339"/>
      <point x="84" y="518" type="curve" smooth="yes"/>
      <point x="84" y="728"/>
      <point x="233" y="889"/>
      <point x="478" y="889" type="curve" smooth="yes"/>
      <point x="680" y="889"/>
      <point x="846" y="791"/>
    </contour>
    <contour>
      <point x="825" y="268" type="curve"/>
      <point x="597" y="376" type="line"/>
      <point x="712" y="658"/>
      <point x="883" y="832"/>
      <point x="1097" y="832" type="curve" smooth="yes"/>
      <point x="1256" y="832"/>
      <point x="1378" y="765"/>
      <point x="1493" y="643" type="curve"/>
      <point x="1318" y="487" type="line"/>
      <point x="1260" y="554"/>
      <point x="1208" y="581"/>
      <point x="1129" y="581" type="curve" smooth="yes"/>
      <point x="1027" y="581"/>
      <point x="921" y="488"/>
    </contour>
    <component base="bhadeva" xOffset="1008"/>
  </outline>
</glyph>
<glyph name="ladevaMAR" format="1">
  <advance width="1621"/>
  <outline>
    <contour>
      <point x="991" y="646" type="curve"/>
      <point x="821" y="500" type="line"/>
      <point x="725" y="611"/>
      <point x="635" y="661"/>
      <point x="539" y="661" type="curve" smooth="yes"/>
      <point x="414" y="661"/>
      <point x="343" y="571"/>
      <point x="343" y="467" type="curve" smooth="yes"/>
      <point x="343" y="358"/>
      <point x="406" y="260"/>
      <point x="573" y="104" type="curve"/>
      <point x="370" y="-8" type="line"/>
      <point x="189" y="156"/>
      <point x="80" y="336"/>
      <point x="80" y="523" type="curve" smooth="yes"/>
      <point x="80" y="742"/>
      <point x="236" y="903"/>
      <point x="461" y="903" type="curve" smooth="yes"/>
      <point x="662" y="903"/>
      <point x="811" y="826"/>
    </contour>
    <contour>
      <point x="631" y="364" type="line"/>
      <point x="692" y="661"/>
      <point x="842" y="891"/>
      <point x="1123" y="891" type="curve" smooth="yes"/>
      <point x="1390" y="891"/>
      <point x="1542" y="725"/>
      <point x="1542" y="501" type="curve" smooth="yes"/>
      <point x="1542" y="333"/>
      <point x="1449" y="153"/>
      <point x="1281" y="2" type="curve"/>
      <point x="1059" y="122" type="line"/>
      <point x="1212" y="262"/>
      <point x="1285" y="390"/>
      <point x="1285" y="512" type="curve" smooth="yes"/>
      <point x="1285" y="596"/>
      <point x="1232" y="650"/>
      <point x="1151" y="650" type="curve" smooth="yes"/>
      <point x="1034" y="650"/>
      <point x="923" y="529"/>
      <point x="875" y="277" type="curve"/>
    </contour>
    <contour>
      <point x="1130" y="1132" type="line"/>
      <point x="1417" y="1132" type="line"/>
      <point x="1417" y="738" type="line"/>
      <point x="1130" y="738" type="line"/>
    </contour>
    <contour>
      <point x="-30" y="1096" type="line"/>
      <point x="-30" y="1289" type="line"/>
      <point x="1651" y="1289" type="line"/>
      <point x="1651" y="1096" type="line"/>
    </contour>
    <contour>
      <point x="693" y="-8" type="move" name="btm"/>
    </contour>
    <contour>
      <point x="1015" y="1289" type="move" name="top"/>
    </contour>
  </outline>
</glyph>
<glyph name="ngamadeva" format="1">
  <advance width="1249"/>
  <outline>
    <contour>
      <point x="757" y="257" type="line"/>
      <point x="1008" y="257" type="line"/>
      <point x="1008" y="-565" type="line"/>
      <point x="757" y="-565" type="line"/>
    </contour>
    <contour>
      <point x="77" y="-158" type="curve" smooth="yes"/>
      <point x="77" y="-105"/>
      <point x="114" y="-72"/>
      <point x="181" y="-72" type="curve" smooth="yes"/>
      <point x="271" y="-72" type="line"/>
      <point x="239" y="-101" type="line"/>
      <point x="239" y="256" type="line"/>
      <point x="489" y="256" type="line"/>
      <point x="489" y="-109" type="line"/>
      <point x="457" y="-71" type="line"/>
      <point x="807" y="-71" type="line"/>
      <point x="807" y="-277" type="line"/>
      <point x="444" y="-277" type="line"/>
      <point x="489" y="-235" type="line"/>
      <point x="489" y="-345" type="line"/>
      <point x="489" y="-419"/>
      <point x="460" y="-463"/>
      <point x="396" y="-463" type="curve" smooth="yes"/>
      <point x="326" y="-463"/>
      <point x="250" y="-411"/>
      <point x="185" y="-346" type="curve" smooth="yes"/>
      <point x="118" y="-280"/>
      <point x="77" y="-213"/>
    </contour>
    <contour>
      <point x="713" y="1121" type="line"/>
      <point x="999" y="1121" type="line"/>
      <point x="999" y="767" type="line"/>
      <point x="518" y="767" type="line"/>
      <point x="425" y="767"/>
      <point x="392" y="735"/>
      <point x="392" y="688" type="curve" smooth="yes"/>
      <point x="392" y="647"/>
      <point x="424" y="619"/>
      <point x="496" y="592" type="curve"/>
      <point x="395" y="604" type="line"/>
      <point x="485" y="643"/>
      <point x="592" y="669"/>
      <point x="713" y="669" type="curve" smooth="yes"/>
      <point x="961" y="669"/>
      <point x="1107" y="556"/>
      <point x="1107" y="387" type="curve" smooth="yes"/>
      <point x="1107" y="226"/>
      <point x="960" y="91"/>
      <point x="651" y="91" type="curve" smooth="yes"/>
      <point x="475" y="91"/>
      <point x="304" y="130"/>
      <point x="93" y="234" type="curve"/>
      <point x="144" y="444" type="line"/>
      <point x="332" y="334"/>
      <point x="491" y="289"/>
      <point x="622" y="289" type="curve" smooth="yes"/>
      <point x="777" y="289"/>
      <point x="846" y="332"/>
      <point x="846" y="388" type="curve" smooth="yes"/>
      <point x="846" y="438"/>
      <point x="795" y="472"/>
      <point x="696" y="472" type="curve" smooth="yes"/>
      <point x="606" y="472"/>
      <point x="523" y="448"/>
      <point x="455" y="416" type="curve"/>
      <point x="446" y="416" type="line"/>
      <point x="229" y="494"/>
      <point x="141" y="603"/>
      <point x="141" y="731" type="curve" smooth="yes"/>
      <point x="141" y="847"/>
      <point x="226" y="957"/>
      <point x="459" y="957" type="curve" smooth="yes"/>
      <point x="773" y="957" type="line"/>
      <point x="713" y="896" type="line"/>
    </contour>
    <contour>
      <point x="1213" y="829" type="curve" smooth="yes"/>
      <point x="1327" y="829"/>
      <point x="1365" y="760"/>
      <point x="1365" y="698" type="curve" smooth="yes"/>
      <point x="1365" y="635"/>
      <point x="1320" y="567"/>
      <point x="1213" y="567" type="curve" smooth="yes"/>
      <point x="1100" y="567"/>
      <point x="1060" y="636"/>
      <point x="1060" y="698" type="curve" smooth="yes"/>
      <point x="1060" y="760"/>
      <point x="1103" y="829"/>
    </contour>
    <contour>
      <point x="1279" y="1096" type="line"/>
      <point x="-30" y="1096" type="line"/>
      <point x="-30" y="1289" type="line"/>
      <point x="1279" y="1289" type="line"/>
    </contour>
    <contour>
      <point x="468" y="-648" type="move" name="btm"/>
    </contour>
    <contour>
      <point x="709" y="1289" type="move" name="top"/>
    </contour>
  </outline>
</glyph>
<glyph name="ninedevaNEP" format="1">
  <advance width="1169"/>
  <outline>
    <contour>
      <point x="541" y="1054" type="line"/>
      <point x="431" y="923"/>
      <point x="377" y="778"/>
      <point x="377" y="639" type="curve" smooth="yes"/>
      <point x="377" y="534"/>
      <point x="436" y="470"/>
      <point x="519" y="470" type="curve" smooth="yes"/>
      <point x="625" y="470"/>
      <point x="722" y="496"/>
      <point x="852" y="496" type="curve" smooth="yes"/>
      <point x="1038" y="496"/>
      <point x="1157" y="371"/>
      <point x="1157" y="211" type="curve" smooth="yes"/>
      <point x="1157" y="104"/>
      <point x="1121" y="18"/>
      <point x="1053" y="-84" type="curve"/>
      <point x="798" y="-19" type="line"/>
      <point x="856" y="51"/>
      <point x="898" y="125"/>
      <point x="898" y="186" type="curve" smooth="yes"/>
      <point x="898" y="236"/>
      <point x="864" y="268"/>
      <point x="806" y="268" type="curve" smooth="yes"/>
      <point x="729" y="269"/>
      <point x="608" y="234"/>
      <point x="480" y="234" type="curve" smooth="yes"/>
      <point x="284" y="234"/>
      <point x="113" y="368"/>
      <point x="113" y="635" type="curve" smooth="yes"/>
      <point x="113" y="848"/>
      <point x="195" y="1084"/>
      <point x="350" y="1262" type="curve"/>
      <point x="378" y="1267" type="line"/>
      <point x="555" y="1148"/>
      <point x="691" y="1094"/>
      <point x="785" y="1094" type="curve" smooth="yes"/>
      <point x="846" y="1094"/>
      <point x="868" y="1125"/>
      <point x="868" y="1163" type="curve" smooth="yes"/>
      <point x="868" y="1196"/>
      <point x="858" y="1229"/>
      <point x="843" y="1264" type="curve"/>
      <point x="1073" y="1300" type="line"/>
      <point x="1101" y="1231"/>
      <point x="1116" y="1172"/>
      <point x="1116" y="1109" type="curve" smooth="yes"/>
      <point x="1116" y="984"/>
      <point x="1039" y="859"/>
      <point x="841" y="859" type="curve" smooth="yes"/>
      <point x="711" y="859"/>
      <point x="573" y="901"/>
      <point x="428" y="986" type="curve"/>
    </contour>
  </outline>
</glyph>
<glyph name="nnaprehalfdeva" format="1">
  <advance width="1102"/>
  <outline>
    <contour>
      <point x="700" y="1121" type="line"/>
      <point x="986" y="1121" type="line"/>
      <point x="986" y="736" type="line"/>
      <point x="986" y="478"/>
      <point x="855" y="297"/>
      <point x="568" y="297" type="curve" smooth="yes"/>
      <point x="276" y="297"/>
      <point x="123" y="487"/>
      <point x="123" y="733" type="curve" smooth="yes"/>
      <point x="123" y="1121" type="line"/>
      <point x="409" y="1121" type="line"/>
      <point x="409" y="673" type="line"/>
      <point x="409" y="569"/>
      <point x="465" y="509"/>
      <point x="551" y="509" type="curve" smooth="yes"/>
      <point x="643" y="509"/>
      <point x="700" y="571"/>
      <point x="700" y="706" type="curve" smooth="yes"/>
    </contour>
    <contour>
      <point x="-30" y="1096" type="line"/>
      <point x="-30" y="1289" type="line"/>
      <point x="1132" y="1289" type="line"/>
      <point x="1132" y="1096" type="line"/>
    </contour>
  </outline>
</glyph>
<glyph name="rha2deva" format="1">
  <advance width="1257"/>
  <outline>
    <contour>
      <point x="1287" y="1096" type="line"/>
      <point x="-30" y="1096" type="line"/>
      <point x="-30" y="1289" type="line"/>
      <point x="1287" y="1289" type="line"/>
    </contour>
    <contour>
      <point x="713" y="1126" type="line"/>
      <point x="1001" y="1126" type="line"/>
      <point x="1001" y="700" type="line"/>
      <point x="674" y="700" type="line"/>
      <point x="429" y="700"/>
      <point x="346" y="592"/>
      <point x="346" y="445" type="curve" smooth="yes"/>
      <point x="346" y="302"/>
      <point x="501" y="185"/>
      <point x="722" y="185" type="curve" smooth="yes"/>
      <point x="889" y="185"/>
      <point x="959" y="247"/>
      <point x="959" y="318" type="curve" smooth="yes"/>
      <point x="959" y="364"/>
      <point x="920" y="399"/>
      <point x="850" y="399" type="curve" smooth="yes"/>
      <point x="766" y="399"/>
      <point x="713" y="339"/>
      <point x="713" y="260" type="curve" smooth="yes"/>
      <point x="713" y="212"/>
      <point x="726" y="169"/>
      <point x="753" y="121" type="curve"/>
      <point x="545" y="98" type="line"/>
      <point x="506" y="159"/>
      <point x="491" y="219"/>
      <point x="491" y="289" type="curve" smooth="yes"/>
      <point x="491" y="436"/>
      <point x="612" y="565"/>
      <point x="843" y="565" type="curve" smooth="yes"/>
      <point x="1046" y="565"/>
      <point x="1171" y="446"/>
      <point x="1171" y="306" type="curve" smooth="yes"/>
      <point x="1171" y="135"/>
      <point x="1026" y="18"/>
      <point x="731" y="18" type="curve" smooth="yes"/>
      <point x="321" y="18"/>
      <point x="84" y="252"/>
      <point x="84" y="505" type="curve" smooth="yes"/>
      <point x="84" y="722"/>
      <point x="225" y="902"/>
      <point x="579" y="902" type="curve" smooth="yes"/>
      <point x="754" y="902" type="line"/>
      <point x="713" y="868" type="line"/>
    </contour>
    <component base="nuktadeva" xOffset="922" yOffset="260"/>
    <contour>
      <point x="557" y="34" type="move" name="btm"/>
    </contour>
    <contour>
      <point x="713" y="1289" type="move" name="top"/>
    </contour>
  </outline>
</glyph>
<glyph name="sharadeva" format="1">
  <advance width="1571"/>
  <outline>
    <contour>
      <point x="1206" y="442" type="line"/>
      <point x="529" y="5" type="line"/>
      <point x="395" y="207" type="line"/>
      <point x="1060" y="634" type="line"/>
    </contour>
    <contour>
      <point x="187" y="372" type="line"/>
      <point x="61" y="579" type="line"/>
      <point x="346" y="731" type="line"/>
      <point x="575" y="852"/>
      <point x="638" y="922"/>
      <point x="638" y="1000" type="curve" smooth="yes"/>
      <point x="638" y="1064"/>
      <point x="594" y="1109"/>
      <point x="530" y="1109" type="curve" smooth="yes"/>
      <point x="452" y="1109"/>
      <point x="414" y="1063"/>
      <point x="414" y="1002" type="curve" smooth="yes"/>
      <point x="414" y="878"/>
      <point x="639" y="769"/>
      <point x="1232" y="705" type="curve"/>
      <point x="1172" y="506" type="line"/>
      <point x="419" y="568"/>
      <point x="163" y="790"/>
      <point x="163" y="1037" type="curve" smooth="yes"/>
      <point x="163" y="1184"/>
      <point x="281" y="1321"/>
      <point x="508" y="1321" type="curve" smooth="yes"/>
      <point x="742" y="1321"/>
      <point x="873" y="1173"/>
      <point x="873" y="996" type="curve" smooth="yes"/>
      <point x="873" y="818"/>
      <point x="749" y="673"/>
      <point x="469" y="524" type="curve" smooth="yes"/>
    </contour>
    <contour>
      <point x="1082" y="1132" type="line"/>
      <point x="1368" y="1132" type="line"/>
      <point x="1368" y="0" type="line"/>
      <point x="1082" y="0" type="line"/>
    </contour>
    <contour>
      <point x="1601" y="1096" type="line"/>
      <point x="970" y="1096" type="line"/>
      <point x="970" y="1289" type="line"/>
      <point x="1601" y="1289" type="line"/>
    </contour>
    <contour>
      <point x="1082" y="1289" type="move" name="top"/>
    </contour>
  </outline>
</glyph>
